<svg id="visual" viewBox="0 0 960 540" width="960" height="540" xmlns="http://www.w3.org/2000/svg" xmlns:xlink="http://www.w3.org/1999/xlink" version="1.1"><rect x="0" y="0" width="960" height="540" fill="#fff"></rect><path d="M0 330L22.8 328.7C45.7 327.3 91.3 324.7 137 335.2C182.7 345.7 228.3 369.3 274 376.2C319.7 383 365.3 373 411.2 361C457 349 503 335 548.8 332.2C594.7 329.3 640.3 337.7 686 337.5C731.7 337.3 777.3 328.7 823 330.5C868.7 332.3 914.3 344.7 937.2 350.8L960 357L960 541L937.2 541C914.3 541 868.7 541 823 541C777.3 541 731.7 541 686 541C640.3 541 594.7 541 548.8 541C503 541 457 541 411.2 541C365.3 541 319.7 541 274 541C228.3 541 182.7 541 137 541C91.3 541 45.7 541 22.8 541L0 541Z" fill="#000033"></path><path d="M0 413L22.8 408.5C45.7 404 91.3 395 137 390C182.7 385 228.3 384 274 388.2C319.7 392.3 365.3 401.7 411.2 402.5C457 403.3 503 395.7 548.8 395C594.7 394.3 640.3 400.7 686 396.7C731.7 392.7 777.3 378.3 823 377.8C868.7 377.3 914.3 390.7 937.2 397.3L960 404L960 541L937.2 541C914.3 541 868.7 541 823 541C777.3 541 731.7 541 686 541C640.3 541 594.7 541 548.8 541C503 541 457 541 411.2 541C365.3 541 319.7 541 274 541C228.3 541 182.7 541 137 541C91.3 541 45.7 541 22.8 541L0 541Z" fill="#530b49"></path><path d="M0 451L22.8 451C45.7 451 91.3 451 137 443.3C182.7 435.7 228.3 420.3 274 416.8C319.7 413.3 365.3 421.7 411.2 426.5C457 431.3 503 432.7 548.8 430.8C594.7 429 640.3 424 686 418.3C731.7 412.7 777.3 406.3 823 405.8C868.7 405.3 914.3 410.7 937.2 413.3L960 416L960 541L937.2 541C914.3 541 868.7 541 823 541C777.3 541 731.7 541 686 541C640.3 541 594.7 541 548.8 541C503 541 457 541 411.2 541C365.3 541 319.7 541 274 541C228.3 541 182.7 541 137 541C91.3 541 45.7 541 22.8 541L0 541Z" fill="#991e44"></path><path d="M0 459L22.8 459.3C45.7 459.7 91.3 460.3 137 459.5C182.7 458.7 228.3 456.3 274 452.7C319.7 449 365.3 444 411.2 440.5C457 437 503 435 548.8 434.2C594.7 433.3 640.3 433.7 686 441.2C731.7 448.7 777.3 463.3 823 470.2C868.7 477 914.3 476 937.2 475.5L960 475L960 541L937.2 541C914.3 541 868.7 541 823 541C777.3 541 731.7 541 686 541C640.3 541 594.7 541 548.8 541C503 541 457 541 411.2 541C365.3 541 319.7 541 274 541C228.3 541 182.7 541 137 541C91.3 541 45.7 541 22.8 541L0 541Z" fill="#c5552c"></path><path d="M0 493L22.8 493C45.7 493 91.3 493 137 496.5C182.7 500 228.3 507 274 510.3C319.7 513.7 365.3 513.3 411.2 508.8C457 504.3 503 495.7 548.8 495.7C594.7 495.7 640.3 504.3 686 502.5C731.7 500.7 777.3 488.3 823 487.2C868.7 486 914.3 496 937.2 501L960 506L960 541L937.2 541C914.3 541 868.7 541 823 541C777.3 541 731.7 541 686 541C640.3 541 594.7 541 548.8 541C503 541 457 541 411.2 541C365.3 541 319.7 541 274 541C228.3 541 182.7 541 137 541C91.3 541 45.7 541 22.8 541L0 541Z" fill="#cc9900"></path></svg>